<svg width="114" height="77" viewBox="0 0 114 77" fill="none" xmlns="http://www.w3.org/2000/svg">
<ellipse cx="30.4137" cy="2.99277" rx="30.4137" ry="2.99277" transform="matrix(0.372186 -0.928158 -0.9538 -0.300443 50.1797 67.2557)" fill="#F0F0F0"/>
<path d="M27.248 29.079L24.548 28.611V26.379H29.804C30.596 26.379 31.664 26.331 33.008 26.235C33.32 26.211 33.788 26.187 34.412 26.163C35.06 26.139 35.636 26.127 36.14 26.127C40.556 26.127 43.856 27.231 46.04 29.439C48.248 31.647 49.352 34.779 49.352 38.835C49.352 41.667 48.8 44.187 47.696 46.395C46.616 48.603 45.068 50.331 43.052 51.579C41.036 52.803 38.684 53.415 35.996 53.415C35.3 53.415 34.208 53.367 32.72 53.271C31.328 53.175 30.38 53.127 29.876 53.127H24.404V50.967L27.248 50.607V29.079ZM32.468 50.715C33.284 50.931 34.424 51.039 35.888 51.039C38.288 50.991 40.172 50.031 41.54 48.159C42.908 46.263 43.592 43.431 43.592 39.663C43.592 36.087 42.92 33.327 41.576 31.383C40.232 29.415 38.144 28.431 35.312 28.431C34.712 28.431 34.136 28.467 33.584 28.539C33.056 28.611 32.684 28.659 32.468 28.683V50.715Z" fill="#0D7377"/>
<path d="M71.284 29.0788L68.512 28.6108V26.3788H80.032V28.6108L76.576 29.0788V50.5708L84.28 50.2468L86.548 43.5148L89.464 43.9108L88.348 53.1268H68.44V50.9668L71.284 50.6068V29.0788Z" fill="#0D7377"/>
<path d="M19.08 67.22C15.52 67.22 12.9 66.58 11.22 65.3C9.58 64.02 8.76 62.14 8.76 59.66C8.76 58.34 8.88 57.1 9.12 55.94C9.4 54.78 9.8 53.44 10.32 51.92C10.76 50.6 11.1 49.46 11.34 48.5C11.58 47.54 11.7 46.56 11.7 45.56C11.7 44.52 11.48 43.66 11.04 42.98C10.64 42.3 9.84 41.78 8.64 41.42C7.44 41.06 5.7 40.88 3.42 40.88V36.44C5.74 36.44 7.48 36.3 8.64 36.02C9.84 35.74 10.64 35.32 11.04 34.76C11.48 34.16 11.7 33.36 11.7 32.36C11.7 31.36 11.58 30.4 11.34 29.48C11.14 28.52 10.8 27.34 10.32 25.94C9.8 24.42 9.4 23.1 9.12 21.98C8.88 20.82 8.76 19.58 8.76 18.26C8.76 15.74 9.58 13.84 11.22 12.56C12.9 11.28 15.52 10.64 19.08 10.64C20.16 10.64 21.2 10.74 22.2 10.94C23.24 11.1 24.46 11.36 25.86 11.72V14.48C25.58 14.44 24.94 14.4 23.94 14.36C22.98 14.32 22.22 14.3 21.66 14.3C17.1 14.3 14.82 15.96 14.82 19.28C14.82 20.6 15.16 22.66 15.84 25.46C16.56 28.58 16.92 30.92 16.92 32.48C16.92 34.32 16.14 35.76 14.58 36.8C13.02 37.8 11.04 38.48 8.64 38.84C11 39.16 12.96 39.88 14.52 41C16.12 42.12 16.92 43.6 16.92 45.44C16.92 46.4 16.82 47.42 16.62 48.5C16.46 49.54 16.2 50.82 15.84 52.34C15.16 55.14 14.82 57.22 14.82 58.58C14.82 61.9 17.1 63.56 21.66 63.56C22.26 63.56 22.96 63.54 23.76 63.5C24.6 63.46 25.3 63.42 25.86 63.38V66.14C24.46 66.5 23.24 66.76 22.2 66.92C21.2 67.12 20.16 67.22 19.08 67.22Z" fill="white"/>
<path d="M94.92 9.78C98.48 9.78 101.1 10.42 102.78 11.7C104.42 12.98 105.24 14.86 105.24 17.34C105.24 18.66 105.12 19.9 104.88 21.06C104.6 22.22 104.2 23.56 103.68 25.08C103.24 26.4 102.9 27.54 102.66 28.5C102.42 29.46 102.3 30.44 102.3 31.44C102.3 32.48 102.52 33.34 102.96 34.02C103.36 34.7 104.16 35.22 105.36 35.58C106.56 35.94 108.3 36.12 110.58 36.12L110.58 40.56C108.26 40.56 106.52 40.7 105.36 40.98C104.16 41.26 103.36 41.68 102.96 42.24C102.52 42.84 102.3 43.64 102.3 44.64C102.3 45.64 102.42 46.6 102.66 47.52C102.86 48.48 103.2 49.66 103.68 51.06C104.2 52.58 104.6 53.9 104.88 55.02C105.12 56.18 105.24 57.42 105.24 58.74C105.24 61.26 104.42 63.16 102.78 64.44C101.1 65.72 98.48 66.36 94.92 66.36C93.84 66.36 92.8 66.26 91.8 66.06C90.76 65.9 89.54 65.64 88.14 65.28L88.14 62.52C88.42 62.56 89.06 62.6 90.06 62.64C91.02 62.68 91.78 62.7 92.34 62.7C96.9 62.7 99.18 61.04 99.18 57.72C99.18 56.4 98.84 54.34 98.16 51.54C97.44 48.42 97.08 46.08 97.08 44.52C97.08 42.68 97.86 41.24 99.42 40.2C100.98 39.2 102.96 38.52 105.36 38.16C103 37.84 101.04 37.12 99.48 36C97.88 34.88 97.08 33.4 97.08 31.56C97.08 30.6 97.18 29.58 97.38 28.5C97.54 27.46 97.8 26.18 98.16 24.66C98.84 21.86 99.18 19.78 99.18 18.42C99.18 15.1 96.9 13.44 92.34 13.44C91.74 13.44 91.04 13.46 90.24 13.5C89.4 13.54 88.7 13.58 88.14 13.62L88.14 10.86C89.54 10.5 90.76 10.24 91.8 10.08C92.8 9.88 93.84 9.78 94.92 9.78Z" fill="white"/>
</svg>
